<svg width="58" height="59" viewBox="0 0 58 59" fill="none" xmlns="http://www.w3.org/2000/svg">
<g filter="url(#filter0_d_780_6588)">
<rect x="5" y="1.52203" width="48" height="48" rx="12" fill="#ECFDF5" shape-rendering="crispEdges"/>
<rect x="5.5" y="2.02203" width="47" height="47" rx="11.5" stroke="#059669" stroke-opacity="0.1" shape-rendering="crispEdges"/>
<path opacity="0.2" d="M39.5 25.522C33.5 25.522 39.5 33.772 33.5 33.772H24.5C18.5 33.772 24.5 25.522 18.5 25.522C24.5 25.522 18.5 17.272 24.5 17.272H33.5C39.5 17.272 33.5 25.522 39.5 25.522Z" fill="#059669"/>
<path d="M21.0481 25.522C21.366 25.7835 21.6221 26.1119 21.7981 26.4839C22.2481 27.412 22.2481 28.5464 22.2481 29.647C22.2481 31.9261 22.3419 33.022 24.4981 33.022C24.697 33.022 24.8878 33.1011 25.0285 33.2417C25.1691 33.3824 25.2481 33.5731 25.2481 33.772C25.2481 33.9709 25.1691 34.1617 25.0285 34.3024C24.8878 34.443 24.697 34.522 24.4981 34.522C22.8594 34.522 21.7494 33.9464 21.1981 32.8102C20.7481 31.882 20.7481 30.7477 20.7481 29.647C20.7481 27.368 20.6544 26.272 18.4981 26.272C18.2992 26.272 18.1084 26.193 17.9678 26.0524C17.8271 25.9117 17.7481 25.7209 17.7481 25.522C17.7481 25.3231 17.8271 25.1324 17.9678 24.9917C18.1084 24.8511 18.2992 24.772 18.4981 24.772C20.6544 24.772 20.7481 23.6761 20.7481 21.397C20.7481 20.2983 20.7481 19.162 21.1981 18.2339C21.7512 17.0977 22.8612 16.522 24.5 16.522C24.6989 16.522 24.8897 16.6011 25.0303 16.7417C25.171 16.8824 25.25 17.0731 25.25 17.272C25.25 17.4709 25.171 17.6617 25.0303 17.8024C24.8897 17.943 24.6989 18.022 24.5 18.022C22.3437 18.022 22.25 19.118 22.25 21.397C22.25 22.4958 22.25 23.632 21.8 24.5602C21.6234 24.9323 21.3666 25.2608 21.0481 25.522ZM39.5 24.772C37.3437 24.772 37.25 23.6761 37.25 21.397C37.25 20.2983 37.25 19.162 36.8 18.2339C36.2487 17.0977 35.1387 16.522 33.5 16.522C33.3011 16.522 33.1103 16.6011 32.9697 16.7417C32.829 16.8824 32.75 17.0731 32.75 17.272C32.75 17.4709 32.829 17.6617 32.9697 17.8024C33.1103 17.943 33.3011 18.022 33.5 18.022C35.6562 18.022 35.75 19.118 35.75 21.397C35.75 22.4958 35.75 23.632 36.2 24.5602C36.376 24.9321 36.6322 25.2606 36.95 25.522C36.6322 25.7835 36.376 26.1119 36.2 26.4839C35.75 27.412 35.75 28.5464 35.75 29.647C35.75 31.9261 35.6562 33.022 33.5 33.022C33.3011 33.022 33.1103 33.1011 32.9697 33.2417C32.829 33.3824 32.75 33.5731 32.75 33.772C32.75 33.9709 32.829 34.1617 32.9697 34.3024C33.1103 34.443 33.3011 34.522 33.5 34.522C35.1387 34.522 36.2487 33.9464 36.8 32.8102C37.25 31.882 37.25 30.7477 37.25 29.647C37.25 27.368 37.3437 26.272 39.5 26.272C39.6989 26.272 39.8897 26.193 40.0303 26.0524C40.171 25.9117 40.25 25.7209 40.25 25.522C40.25 25.3231 40.171 25.1324 40.0303 24.9917C39.8897 24.8511 39.6989 24.772 39.5 24.772Z" fill="#059669"/>
</g>
<defs>
<filter id="filter0_d_780_6588" x="0" y="0.522034" width="58" height="58" filterUnits="userSpaceOnUse" color-interpolation-filters="sRGB">
<feFlood flood-opacity="0" result="BackgroundImageFix"/>
<feColorMatrix in="SourceAlpha" type="matrix" values="0 0 0 0 0 0 0 0 0 0 0 0 0 0 0 0 0 0 127 0" result="hardAlpha"/>
<feOffset dy="4"/>
<feGaussianBlur stdDeviation="2.5"/>
<feComposite in2="hardAlpha" operator="out"/>
<feColorMatrix type="matrix" values="0 0 0 0 0 0 0 0 0 0 0 0 0 0 0 0 0 0 0.05 0"/>
<feBlend mode="normal" in2="BackgroundImageFix" result="effect1_dropShadow_780_6588"/>
<feBlend mode="normal" in="SourceGraphic" in2="effect1_dropShadow_780_6588" result="shape"/>
</filter>
</defs>
</svg>
