<svg width="58" height="59" viewBox="0 0 58 59" fill="none" xmlns="http://www.w3.org/2000/svg">
<g filter="url(#filter0_d_780_6580)">
<rect x="5" y="1.52197" width="48" height="48" rx="12" fill="#7F54B3" fill-opacity="0.06" shape-rendering="crispEdges"/>
<rect x="5.5" y="2.02197" width="47" height="47" rx="11.5" stroke="#7F54B3" stroke-opacity="0.1" shape-rendering="crispEdges"/>
<path fill-rule="evenodd" clip-rule="evenodd" d="M41.0089 20.0149C41.0036 20.0099 40.9982 20.0049 40.9929 20H41.0089V20.0149ZM17.1693 21.5557C17.3175 21.3545 17.5398 21.2487 17.8363 21.2275C18.3762 21.1851 18.6832 21.4392 18.7573 21.9898C19.0855 24.2024 19.4455 26.0763 19.8266 27.6115L22.1452 23.1967C22.3569 22.7944 22.6216 22.5826 22.9392 22.5615C23.4051 22.5297 23.6909 22.8261 23.8073 23.4508C24.072 24.8588 24.4108 26.0552 24.8131 27.0715C25.0884 24.3824 25.5542 22.445 26.2106 21.2487C26.3694 20.9522 26.6023 20.804 26.9093 20.7828C27.1528 20.7617 27.3752 20.8358 27.5763 20.9946C27.7775 21.1534 27.8833 21.3545 27.9045 21.598C27.9151 21.7886 27.8833 21.9474 27.7986 22.1062C27.3858 22.8685 27.0469 24.1495 26.7717 25.9281C26.5071 27.6538 26.4117 28.9984 26.4753 29.9618C26.4964 30.2264 26.4541 30.4593 26.3482 30.6605C26.2212 30.8934 26.0306 31.0205 25.7871 31.0416C25.5119 31.0628 25.226 30.9358 24.9508 30.6499C23.9661 29.6442 23.1827 28.1408 22.611 26.1398C21.9229 27.495 21.4147 28.5113 21.0865 29.1889C20.4619 30.3853 19.9325 30.9993 19.4879 31.0311C19.202 31.0523 18.9585 30.8087 18.7468 30.3006C18.2068 28.9137 17.6245 26.2352 16.9999 22.265C16.9681 21.9898 17.0211 21.7463 17.1693 21.5557ZM39.9313 23.2179C39.5503 22.5509 38.9891 22.1486 38.2374 21.9898C38.0363 21.9474 37.8457 21.9263 37.6658 21.9263C36.6494 21.9263 35.8236 22.4556 35.1778 23.5143C34.6273 24.4142 34.352 25.4094 34.352 26.4998C34.352 27.3151 34.5214 28.0138 34.8602 28.5961C35.2413 29.2631 35.8024 29.6654 36.5541 29.8241C36.7553 29.8665 36.9459 29.8877 37.1258 29.8877C38.1527 29.8877 38.9785 29.3583 39.6137 28.2996C40.1643 27.3891 40.4395 26.394 40.4395 25.3035C40.4395 24.4777 40.2702 23.7896 39.9313 23.2179ZM38.5974 26.1505C38.4492 26.8492 38.1845 27.368 37.7928 27.7173C37.4857 27.9926 37.1999 28.1091 36.9352 28.0561C36.6811 28.0032 36.4694 27.7809 36.3106 27.368C36.1835 27.0398 36.12 26.7116 36.12 26.4046C36.12 26.1399 36.1412 25.8752 36.1942 25.6317C36.2894 25.1976 36.4694 24.7742 36.7553 24.3719C37.1046 23.8531 37.4752 23.6414 37.8563 23.7155C38.1104 23.7684 38.3221 23.9907 38.4809 24.4036C38.608 24.7318 38.6715 25.06 38.6715 25.367C38.6715 25.6423 38.6398 25.907 38.5974 26.1505ZM31.5994 21.9898C32.3405 22.1486 32.9121 22.5509 33.2933 23.2179C33.632 23.7896 33.8014 24.4777 33.8014 25.3035C33.8014 26.394 33.5262 27.3891 32.9757 28.2996C32.3405 29.3583 31.5147 29.8877 30.4878 29.8877C30.3077 29.8877 30.1171 29.8665 29.916 29.8241C29.1644 29.6654 28.6033 29.2631 28.2221 28.5961C27.8833 28.0138 27.7139 27.3151 27.7139 26.4998C27.7139 25.4094 27.9892 24.4142 28.5397 23.5143C29.1856 22.4556 30.0113 21.9263 31.0276 21.9263C31.2077 21.9263 31.3982 21.9474 31.5994 21.9898ZM31.1547 27.7173C31.5464 27.368 31.8111 26.8492 31.9593 26.1505C32.0123 25.907 32.0334 25.6423 32.0334 25.367C32.0334 25.06 31.9699 24.7318 31.8429 24.4036C31.6841 23.9907 31.4723 23.7684 31.2182 23.7155C30.8371 23.6414 30.4666 23.8531 30.1171 24.3719C29.8313 24.7742 29.6513 25.1976 29.5561 25.6317C29.5031 25.8752 29.4819 26.1399 29.4819 26.4046C29.4819 26.7116 29.5455 27.0398 29.6725 27.368C29.8313 27.7809 30.0431 28.0032 30.2972 28.0561C30.5618 28.1091 30.8477 27.9926 31.1547 27.7173Z" fill="#7F54B3"/>
</g>
<defs>
<filter id="filter0_d_780_6580" x="0" y="0.521973" width="58" height="58" filterUnits="userSpaceOnUse" color-interpolation-filters="sRGB">
<feFlood flood-opacity="0" result="BackgroundImageFix"/>
<feColorMatrix in="SourceAlpha" type="matrix" values="0 0 0 0 0 0 0 0 0 0 0 0 0 0 0 0 0 0 127 0" result="hardAlpha"/>
<feOffset dy="4"/>
<feGaussianBlur stdDeviation="2.5"/>
<feComposite in2="hardAlpha" operator="out"/>
<feColorMatrix type="matrix" values="0 0 0 0 0 0 0 0 0 0 0 0 0 0 0 0 0 0 0.05 0"/>
<feBlend mode="normal" in2="BackgroundImageFix" result="effect1_dropShadow_780_6580"/>
<feBlend mode="normal" in="SourceGraphic" in2="effect1_dropShadow_780_6580" result="shape"/>
</filter>
</defs>
</svg>
