<svg width="58" height="59" viewBox="0 0 58 59" fill="none" xmlns="http://www.w3.org/2000/svg">
<g filter="url(#filter0_d_780_6580)">
<rect x="5" y="1.52203" width="48" height="48" rx="12" fill="#FDF2F8" shape-rendering="crispEdges"/>
<rect x="5.5" y="2.02203" width="47" height="47" rx="11.5" stroke="#DB2777" stroke-opacity="0.1" shape-rendering="crispEdges"/>
<path fill-rule="evenodd" clip-rule="evenodd" d="M15.9652 25.522C15.9652 32.7243 21.8015 38.5637 28.9999 38.5637C36.1984 38.5637 42.0347 32.7243 42.0347 25.522C42.0347 18.3197 36.1984 12.4803 28.9999 12.4803C21.8015 12.4803 15.9652 18.3197 15.9652 25.522ZM25.7408 20.0878H23.5687V30.9562H25.7408V20.0878ZM27.9129 20.0878H34.4293V22.2611H27.9129V20.0878ZM34.4293 24.4344H27.9129V26.6077H34.4293V24.4344ZM27.9129 28.7829H34.4293V30.9562H27.9129V28.7829Z" fill="#DB2777"/>
</g>
<defs>
<filter id="filter0_d_780_6580" x="0" y="0.522034" width="58" height="58" filterUnits="userSpaceOnUse" color-interpolation-filters="sRGB">
<feFlood flood-opacity="0" result="BackgroundImageFix"/>
<feColorMatrix in="SourceAlpha" type="matrix" values="0 0 0 0 0 0 0 0 0 0 0 0 0 0 0 0 0 0 127 0" result="hardAlpha"/>
<feOffset dy="4"/>
<feGaussianBlur stdDeviation="2.5"/>
<feComposite in2="hardAlpha" operator="out"/>
<feColorMatrix type="matrix" values="0 0 0 0 0 0 0 0 0 0 0 0 0 0 0 0 0 0 0.05 0"/>
<feBlend mode="normal" in2="BackgroundImageFix" result="effect1_dropShadow_780_6580"/>
<feBlend mode="normal" in="SourceGraphic" in2="effect1_dropShadow_780_6580" result="shape"/>
</filter>
</defs>
</svg>
