<svg width="58" height="59" viewBox="0 0 58 59" fill="none" xmlns="http://www.w3.org/2000/svg">
<g filter="url(#filter0_d_780_6608)">
<rect x="5" y="1.52203" width="48" height="48" rx="12" fill="#FEF2F2" shape-rendering="crispEdges"/>
<rect x="5.5" y="2.02203" width="47" height="47" rx="11.5" stroke="#DC2626" stroke-opacity="0.1" shape-rendering="crispEdges"/>
<path d="M29 15.772C27.0716 15.772 25.1866 16.3439 23.5832 17.4152C21.9798 18.4865 20.7301 20.0093 19.9922 21.7909C19.2542 23.5724 19.0611 25.5329 19.4373 27.4242C19.8136 29.3155 20.7422 31.0528 22.1057 32.4163C23.4693 33.7799 25.2066 34.7085 27.0979 35.0847C28.9892 35.4609 30.9496 35.2678 32.7312 34.5299C34.5127 33.7919 36.0355 32.5422 37.1068 30.9388C38.1782 29.3355 38.75 27.4504 38.75 25.522C38.7473 22.937 37.7192 20.4586 35.8913 18.6308C34.0634 16.8029 31.585 15.7748 29 15.772ZM26 25.522C26 24.9287 26.176 24.3487 26.5056 23.8553C26.8352 23.362 27.3038 22.9775 27.852 22.7504C28.4001 22.5233 29.0033 22.4639 29.5853 22.5797C30.1672 22.6954 30.7018 22.9812 31.1213 23.4007C31.5409 23.8203 31.8266 24.3548 31.9424 24.9368C32.0581 25.5187 31.9987 26.1219 31.7716 26.6701C31.5446 27.2183 31.1601 27.6868 30.6667 28.0164C30.1734 28.3461 29.5933 28.522 29 28.522C28.2044 28.522 27.4413 28.206 26.8787 27.6434C26.3161 27.0807 26 26.3177 26 25.522ZM34.2763 19.1845L31.6053 21.8564C30.845 21.3138 29.9341 21.0221 29 21.0221C28.0659 21.0221 27.1551 21.3138 26.3947 21.8564L23.7238 19.1845C25.2043 17.9488 27.0715 17.2719 29 17.2719C30.9285 17.2719 32.7957 17.9488 34.2763 19.1845ZM23.7238 31.8595L26.3947 29.1877C27.1551 29.7303 28.0659 30.022 29 30.022C29.9341 30.022 30.845 29.7303 31.6053 29.1877L34.2763 31.8595C32.7957 33.0953 30.9285 33.7721 29 33.7721C27.0715 33.7721 25.2043 33.0953 23.7238 31.8595Z" fill="#DC2626"/>
</g>
<defs>
<filter id="filter0_d_780_6608" x="0" y="0.522034" width="58" height="58" filterUnits="userSpaceOnUse" color-interpolation-filters="sRGB">
<feFlood flood-opacity="0" result="BackgroundImageFix"/>
<feColorMatrix in="SourceAlpha" type="matrix" values="0 0 0 0 0 0 0 0 0 0 0 0 0 0 0 0 0 0 127 0" result="hardAlpha"/>
<feOffset dy="4"/>
<feGaussianBlur stdDeviation="2.5"/>
<feComposite in2="hardAlpha" operator="out"/>
<feColorMatrix type="matrix" values="0 0 0 0 0 0 0 0 0 0 0 0 0 0 0 0 0 0 0.05 0"/>
<feBlend mode="normal" in2="BackgroundImageFix" result="effect1_dropShadow_780_6608"/>
<feBlend mode="normal" in="SourceGraphic" in2="effect1_dropShadow_780_6608" result="shape"/>
</filter>
</defs>
</svg>
