<svg width="59" height="59" viewBox="0 0 59 59" fill="none" xmlns="http://www.w3.org/2000/svg">
<g filter="url(#filter0_d_780_6571)">
<rect x="5.33328" y="1.52203" width="48" height="48" rx="12" fill="#EFF6FF" shape-rendering="crispEdges"/>
<rect x="5.83328" y="2.02203" width="47" height="47" rx="11.5" stroke="#3B82F6" stroke-opacity="0.1" shape-rendering="crispEdges"/>
<path d="M36.0833 21.772V32.272C36.0833 32.6699 35.9252 33.0514 35.6439 33.3327C35.3626 33.614 34.9811 33.772 34.5833 33.772H21.0833C20.6855 33.772 20.3039 33.614 20.0226 33.3327C19.7413 33.0514 19.5833 32.6699 19.5833 32.272V21.772C19.5833 21.3742 19.7413 20.9927 20.0226 20.7114C20.3039 20.4301 20.6855 20.272 21.0833 20.272H34.5833C34.9811 20.272 35.3626 20.4301 35.6439 20.7114C35.9252 20.9927 36.0833 21.3742 36.0833 21.772ZM37.5833 17.272H23.3333C23.1344 17.272 22.9436 17.3511 22.803 17.4917C22.6623 17.6324 22.5833 17.8231 22.5833 18.022C22.5833 18.2209 22.6623 18.4117 22.803 18.5524C22.9436 18.693 23.1344 18.772 23.3333 18.772H37.5833V30.022C37.5833 30.2209 37.6623 30.4117 37.803 30.5524C37.9436 30.693 38.1344 30.772 38.3333 30.772C38.5322 30.772 38.723 30.693 38.8636 30.5524C39.0043 30.4117 39.0833 30.2209 39.0833 30.022V18.772C39.0833 18.3742 38.9252 17.9927 38.6439 17.7114C38.3626 17.4301 37.9811 17.272 37.5833 17.272Z" fill="#2563EB"/>
</g>
<defs>
<filter id="filter0_d_780_6571" x="0.333282" y="0.522034" width="58" height="58" filterUnits="userSpaceOnUse" color-interpolation-filters="sRGB">
<feFlood flood-opacity="0" result="BackgroundImageFix"/>
<feColorMatrix in="SourceAlpha" type="matrix" values="0 0 0 0 0 0 0 0 0 0 0 0 0 0 0 0 0 0 127 0" result="hardAlpha"/>
<feOffset dy="4"/>
<feGaussianBlur stdDeviation="2.5"/>
<feComposite in2="hardAlpha" operator="out"/>
<feColorMatrix type="matrix" values="0 0 0 0 0 0 0 0 0 0 0 0 0 0 0 0 0 0 0.05 0"/>
<feBlend mode="normal" in2="BackgroundImageFix" result="effect1_dropShadow_780_6571"/>
<feBlend mode="normal" in="SourceGraphic" in2="effect1_dropShadow_780_6571" result="shape"/>
</filter>
</defs>
</svg>
