<svg width="58" height="58" viewBox="0 0 58 58" fill="none" xmlns="http://www.w3.org/2000/svg">
<g filter="url(#filter0_d_816_8315)">
<rect x="5" y="1" width="48" height="48" rx="12" fill="#F5F3FF" shape-rendering="crispEdges"/>
<rect x="5.5" y="1.5" width="47" height="47" rx="11.5" stroke="#9333EA" stroke-opacity="0.1" shape-rendering="crispEdges"/>
<g clip-path="url(#clip0_816_8315)">
<path d="M37.125 15.25H20.875C20.444 15.25 20.0307 15.4212 19.726 15.726C19.4212 16.0307 19.25 16.444 19.25 16.875V33.125C19.25 33.556 19.4212 33.9693 19.726 34.274C20.0307 34.5788 20.444 34.75 20.875 34.75H37.125C37.556 34.75 37.9693 34.5788 38.274 34.274C38.5788 33.9693 38.75 33.556 38.75 33.125V16.875C38.75 16.444 38.5788 16.0307 38.274 15.726C37.9693 15.4212 37.556 15.25 37.125 15.25ZM22.9062 31.0938C22.6652 31.0938 22.4296 31.0223 22.2291 30.8884C22.0287 30.7544 21.8725 30.5641 21.7803 30.3414C21.688 30.1187 21.6639 29.8736 21.7109 29.6372C21.7579 29.4008 21.874 29.1837 22.0445 29.0132C22.2149 28.8428 22.4321 28.7267 22.6685 28.6797C22.9049 28.6326 23.1499 28.6568 23.3726 28.749C23.5953 28.8413 23.7857 28.9975 23.9196 29.1979C24.0535 29.3983 24.125 29.634 24.125 29.875C24.125 30.1982 23.9966 30.5082 23.768 30.7368C23.5395 30.9653 23.2295 31.0938 22.9062 31.0938ZM22.9062 26.2188C22.6652 26.2188 22.4296 26.1473 22.2291 26.0134C22.0287 25.8794 21.8725 25.6891 21.7803 25.4664C21.688 25.2437 21.6639 24.9986 21.7109 24.7622C21.7579 24.5258 21.874 24.3087 22.0445 24.1382C22.2149 23.9678 22.4321 23.8517 22.6685 23.8047C22.9049 23.7576 23.1499 23.7818 23.3726 23.874C23.5953 23.9663 23.7857 24.1225 23.9196 24.3229C24.0535 24.5233 24.125 24.759 24.125 25C24.125 25.3232 23.9966 25.6332 23.768 25.8618C23.5395 26.0903 23.2295 26.2188 22.9062 26.2188ZM22.9062 21.3438C22.6652 21.3438 22.4296 21.2723 22.2291 21.1384C22.0287 21.0044 21.8725 20.8141 21.7803 20.5914C21.688 20.3687 21.6639 20.1236 21.7109 19.8872C21.7579 19.6508 21.874 19.4337 22.0445 19.2632C22.2149 19.0928 22.4321 18.9767 22.6685 18.9297C22.9049 18.8826 23.1499 18.9068 23.3726 18.999C23.5953 19.0913 23.7857 19.2475 23.9196 19.4479C24.0535 19.6483 24.125 19.884 24.125 20.125C24.125 20.4482 23.9966 20.7582 23.768 20.9868C23.5395 21.2153 23.2295 21.3438 22.9062 21.3438ZM35.5 30.6875H26.5625C26.347 30.6875 26.1403 30.6019 25.988 30.4495C25.8356 30.2972 25.75 30.0905 25.75 29.875C25.75 29.6595 25.8356 29.4528 25.988 29.3005C26.1403 29.1481 26.347 29.0625 26.5625 29.0625H35.5C35.7155 29.0625 35.9222 29.1481 36.0745 29.3005C36.2269 29.4528 36.3125 29.6595 36.3125 29.875C36.3125 30.0905 36.2269 30.2972 36.0745 30.4495C35.9222 30.6019 35.7155 30.6875 35.5 30.6875ZM35.5 25.8125H26.5625C26.347 25.8125 26.1403 25.7269 25.988 25.5745C25.8356 25.4222 25.75 25.2155 25.75 25C25.75 24.7845 25.8356 24.5778 25.988 24.4255C26.1403 24.2731 26.347 24.1875 26.5625 24.1875H35.5C35.7155 24.1875 35.9222 24.2731 36.0745 24.4255C36.2269 24.5778 36.3125 24.7845 36.3125 25C36.3125 25.2155 36.2269 25.4222 36.0745 25.5745C35.9222 25.7269 35.7155 25.8125 35.5 25.8125ZM35.5 20.9375H26.5625C26.347 20.9375 26.1403 20.8519 25.988 20.6995C25.8356 20.5472 25.75 20.3405 25.75 20.125C25.75 19.9095 25.8356 19.7028 25.988 19.5505C26.1403 19.3981 26.347 19.3125 26.5625 19.3125H35.5C35.7155 19.3125 35.9222 19.3981 36.0745 19.5505C36.2269 19.7028 36.3125 19.9095 36.3125 20.125C36.3125 20.3405 36.2269 20.5472 36.0745 20.6995C35.9222 20.8519 35.7155 20.9375 35.5 20.9375Z" fill="#9333EA"/>
</g>
</g>
<defs>
<filter id="filter0_d_816_8315" x="0" y="0" width="58" height="58" filterUnits="userSpaceOnUse" color-interpolation-filters="sRGB">
<feFlood flood-opacity="0" result="BackgroundImageFix"/>
<feColorMatrix in="SourceAlpha" type="matrix" values="0 0 0 0 0 0 0 0 0 0 0 0 0 0 0 0 0 0 127 0" result="hardAlpha"/>
<feOffset dy="4"/>
<feGaussianBlur stdDeviation="2.5"/>
<feComposite in2="hardAlpha" operator="out"/>
<feColorMatrix type="matrix" values="0 0 0 0 0 0 0 0 0 0 0 0 0 0 0 0 0 0 0.05 0"/>
<feBlend mode="normal" in2="BackgroundImageFix" result="effect1_dropShadow_816_8315"/>
<feBlend mode="normal" in="SourceGraphic" in2="effect1_dropShadow_816_8315" result="shape"/>
</filter>
<clipPath id="clip0_816_8315">
<rect width="24" height="24" fill="white" transform="translate(17 13)"/>
</clipPath>
</defs>
</svg>
