<svg width="58" height="58" viewBox="0 0 58 58" fill="none" xmlns="http://www.w3.org/2000/svg">
<g filter="url(#filter0_d_816_9335)">
<rect x="5" y="1" width="48" height="48" rx="12" fill="#ECFDF5" shape-rendering="crispEdges"/>
<rect x="5.5" y="1.5" width="47" height="47" rx="11.5" stroke="#059669" stroke-opacity="0.1" shape-rendering="crispEdges"/>
<path d="M28.75 15C26.8216 15 24.9366 15.5718 23.3332 16.6432C21.7298 17.7145 20.4801 19.2373 19.7422 21.0188C19.0042 22.8004 18.8111 24.7608 19.1873 26.6521C19.5636 28.5434 20.4922 30.2807 21.8557 31.6443C23.2193 33.0079 24.9566 33.9365 26.8479 34.3127C28.7392 34.6889 30.6996 34.4958 32.4812 33.7578C34.2627 33.0199 35.7855 31.7702 36.8568 30.1668C37.9282 28.5634 38.5 26.6784 38.5 24.75C38.4973 22.165 37.4692 19.6866 35.6413 17.8587C33.8134 16.0308 31.335 15.0027 28.75 15ZM33.0306 23.0306L27.7806 28.2806C27.711 28.3504 27.6283 28.4057 27.5372 28.4434C27.4462 28.4812 27.3486 28.5006 27.25 28.5006C27.1514 28.5006 27.0538 28.4812 26.9628 28.4434C26.8718 28.4057 26.789 28.3504 26.7194 28.2806L24.4694 26.0306C24.3286 25.8899 24.2496 25.699 24.2496 25.5C24.2496 25.301 24.3286 25.1101 24.4694 24.9694C24.6101 24.8286 24.801 24.7496 25 24.7496C25.199 24.7496 25.3899 24.8286 25.5306 24.9694L27.25 26.6897L31.9694 21.9694C32.0391 21.8997 32.1218 21.8444 32.2128 21.8067C32.3039 21.769 32.4015 21.7496 32.5 21.7496C32.5986 21.7496 32.6961 21.769 32.7872 21.8067C32.8782 21.8444 32.9609 21.8997 33.0306 21.9694C33.1003 22.0391 33.1556 22.1218 33.1933 22.2128C33.231 22.3039 33.2504 22.4015 33.2504 22.5C33.2504 22.5985 33.231 22.6961 33.1933 22.7872C33.1556 22.8782 33.1003 22.9609 33.0306 23.0306Z" fill="#059669"/>
</g>
<defs>
<filter id="filter0_d_816_9335" x="0" y="0" width="58" height="58" filterUnits="userSpaceOnUse" color-interpolation-filters="sRGB">
<feFlood flood-opacity="0" result="BackgroundImageFix"/>
<feColorMatrix in="SourceAlpha" type="matrix" values="0 0 0 0 0 0 0 0 0 0 0 0 0 0 0 0 0 0 127 0" result="hardAlpha"/>
<feOffset dy="4"/>
<feGaussianBlur stdDeviation="2.5"/>
<feComposite in2="hardAlpha" operator="out"/>
<feColorMatrix type="matrix" values="0 0 0 0 0 0 0 0 0 0 0 0 0 0 0 0 0 0 0.05 0"/>
<feBlend mode="normal" in2="BackgroundImageFix" result="effect1_dropShadow_816_9335"/>
<feBlend mode="normal" in="SourceGraphic" in2="effect1_dropShadow_816_9335" result="shape"/>
</filter>
</defs>
</svg>
