<svg width="58" height="59" viewBox="0 0 58 59" fill="none" xmlns="http://www.w3.org/2000/svg">
<g filter="url(#filter0_d_780_6599)">
<rect x="5" y="1.52203" width="48" height="48" rx="12" fill="#FFFBEB" shape-rendering="crispEdges"/>
<rect x="5.5" y="2.02203" width="47" height="47" rx="11.5" stroke="#EA580C" stroke-opacity="0.1" shape-rendering="crispEdges"/>
<path d="M37.97 19.7236L29.72 15.2095C29.4996 15.0877 29.2518 15.0238 29 15.0238C28.7482 15.0238 28.5004 15.0877 28.28 15.2095L20.03 19.7255C19.7944 19.8544 19.5977 20.0442 19.4605 20.275C19.3233 20.5059 19.2506 20.7694 19.25 21.038V30.0042C19.2506 30.2728 19.3233 30.5362 19.4605 30.7671C19.5977 30.998 19.7944 31.1878 20.03 31.3167L28.28 35.8326C28.5004 35.9544 28.7482 36.0183 29 36.0183C29.2518 36.0183 29.4996 35.9544 29.72 35.8326L37.97 31.3167C38.2056 31.1878 38.4023 30.998 38.5395 30.7671C38.6767 30.5362 38.7494 30.2728 38.75 30.0042V21.0389C38.7499 20.7699 38.6774 20.5058 38.5402 20.2744C38.403 20.043 38.206 19.8527 37.97 19.7236ZM29 24.772L21.4672 20.647L29 16.522L36.5328 20.647L29 24.772ZM29.75 34.1133V26.0686L37.25 21.9642V30.0042L29.75 34.1133Z" fill="#EA580C"/>
</g>
<defs>
<filter id="filter0_d_780_6599" x="0" y="0.522034" width="58" height="58" filterUnits="userSpaceOnUse" color-interpolation-filters="sRGB">
<feFlood flood-opacity="0" result="BackgroundImageFix"/>
<feColorMatrix in="SourceAlpha" type="matrix" values="0 0 0 0 0 0 0 0 0 0 0 0 0 0 0 0 0 0 127 0" result="hardAlpha"/>
<feOffset dy="4"/>
<feGaussianBlur stdDeviation="2.5"/>
<feComposite in2="hardAlpha" operator="out"/>
<feColorMatrix type="matrix" values="0 0 0 0 0 0 0 0 0 0 0 0 0 0 0 0 0 0 0.05 0"/>
<feBlend mode="normal" in2="BackgroundImageFix" result="effect1_dropShadow_780_6599"/>
<feBlend mode="normal" in="SourceGraphic" in2="effect1_dropShadow_780_6599" result="shape"/>
</filter>
</defs>
</svg>
