<svg width="58" height="59" viewBox="0 0 58 59" fill="none" xmlns="http://www.w3.org/2000/svg">
<g filter="url(#filter0_d_780_6561)">
<rect x="5" y="1.52203" width="48" height="48" rx="12" fill="#ECFEFF" shape-rendering="crispEdges"/>
<rect x="5.5" y="2.02203" width="47" height="47" rx="11.5" stroke="#06B6D4" stroke-opacity="0.1" shape-rendering="crispEdges"/>
<path d="M37.0306 21.2414L31.7806 15.9914C31.7109 15.9218 31.6282 15.8666 31.5371 15.8289C31.4461 15.7913 31.3485 15.772 31.25 15.772H22.25C21.8522 15.772 21.4706 15.9301 21.1893 16.2114C20.908 16.4927 20.75 16.8742 20.75 17.272V33.772C20.75 34.1699 20.908 34.5514 21.1893 34.8327C21.4706 35.114 21.8522 35.272 22.25 35.272H35.75C36.1478 35.272 36.5294 35.114 36.8107 34.8327C37.092 34.5514 37.25 34.1699 37.25 33.772V21.772C37.2501 21.6735 37.2307 21.5759 37.1931 21.4849C37.1555 21.3939 37.1003 21.3111 37.0306 21.2414ZM31.25 28.522H29.75V30.022C29.75 30.2209 29.671 30.4117 29.5303 30.5524C29.3897 30.693 29.1989 30.772 29 30.772C28.8011 30.772 28.6103 30.693 28.4697 30.5524C28.329 30.4117 28.25 30.2209 28.25 30.022V28.522H26.75C26.5511 28.522 26.3603 28.443 26.2197 28.3024C26.079 28.1617 26 27.9709 26 27.772C26 27.5731 26.079 27.3824 26.2197 27.2417C26.3603 27.1011 26.5511 27.022 26.75 27.022H28.25V25.522C28.25 25.3231 28.329 25.1324 28.4697 24.9917C28.6103 24.8511 28.8011 24.772 29 24.772C29.1989 24.772 29.3897 24.8511 29.5303 24.9917C29.671 25.1324 29.75 25.3231 29.75 25.522V27.022H31.25C31.4489 27.022 31.6397 27.1011 31.7803 27.2417C31.921 27.3824 32 27.5731 32 27.772C32 27.9709 31.921 28.1617 31.7803 28.3024C31.6397 28.443 31.4489 28.522 31.25 28.522ZM31.25 21.772V17.5823L35.4397 21.772H31.25Z" fill="#0891B2"/>
</g>
<defs>
<filter id="filter0_d_780_6561" x="0" y="0.522034" width="58" height="58" filterUnits="userSpaceOnUse" color-interpolation-filters="sRGB">
<feFlood flood-opacity="0" result="BackgroundImageFix"/>
<feColorMatrix in="SourceAlpha" type="matrix" values="0 0 0 0 0 0 0 0 0 0 0 0 0 0 0 0 0 0 127 0" result="hardAlpha"/>
<feOffset dy="4"/>
<feGaussianBlur stdDeviation="2.5"/>
<feComposite in2="hardAlpha" operator="out"/>
<feColorMatrix type="matrix" values="0 0 0 0 0 0 0 0 0 0 0 0 0 0 0 0 0 0 0.05 0"/>
<feBlend mode="normal" in2="BackgroundImageFix" result="effect1_dropShadow_780_6561"/>
<feBlend mode="normal" in="SourceGraphic" in2="effect1_dropShadow_780_6561" result="shape"/>
</filter>
</defs>
</svg>
