<svg width="59" height="59" viewBox="0 0 59 59" fill="none" xmlns="http://www.w3.org/2000/svg">
<g filter="url(#filter0_d_780_6550)">
<rect x="5.66669" y="1.52203" width="48" height="48" rx="12" fill="#F5F3FF" shape-rendering="crispEdges"/>
<rect x="6.16669" y="2.02203" width="47" height="47" rx="11.5" stroke="#9333EA" stroke-opacity="0.1" shape-rendering="crispEdges"/>
<path d="M40.9167 27.772C40.9167 27.9709 40.8377 28.1617 40.697 28.3024C40.5564 28.443 40.3656 28.522 40.1667 28.522H38.6667V30.022C38.6667 30.2209 38.5877 30.4117 38.447 30.5524C38.3064 30.693 38.1156 30.772 37.9167 30.772C37.7178 30.772 37.527 30.693 37.3864 30.5524C37.2457 30.4117 37.1667 30.2209 37.1667 30.022V28.522H35.6667C35.4678 28.522 35.277 28.443 35.1364 28.3024C34.9957 28.1617 34.9167 27.9709 34.9167 27.772C34.9167 27.5731 34.9957 27.3824 35.1364 27.2417C35.277 27.1011 35.4678 27.022 35.6667 27.022H37.1667V25.522C37.1667 25.3231 37.2457 25.1324 37.3864 24.9917C37.527 24.8511 37.7178 24.772 37.9167 24.772C38.1156 24.772 38.3064 24.8511 38.447 24.9917C38.5877 25.1324 38.6667 25.3231 38.6667 25.522V27.022H40.1667C40.3656 27.022 40.5564 27.1011 40.697 27.2417C40.8377 27.3824 40.9167 27.5731 40.9167 27.772ZM22.9167 20.272H24.4167V21.772C24.4167 21.9709 24.4957 22.1617 24.6364 22.3024C24.777 22.443 24.9678 22.522 25.1667 22.522C25.3656 22.522 25.5564 22.443 25.697 22.3024C25.8377 22.1617 25.9167 21.9709 25.9167 21.772V20.272H27.4167C27.6156 20.272 27.8064 20.193 27.947 20.0524C28.0877 19.9117 28.1667 19.7209 28.1667 19.522C28.1667 19.3231 28.0877 19.1324 27.947 18.9917C27.8064 18.8511 27.6156 18.772 27.4167 18.772H25.9167V17.272C25.9167 17.0731 25.8377 16.8824 25.697 16.7417C25.5564 16.6011 25.3656 16.522 25.1667 16.522C24.9678 16.522 24.777 16.6011 24.6364 16.7417C24.4957 16.8824 24.4167 17.0731 24.4167 17.272V18.772H22.9167C22.7178 18.772 22.527 18.8511 22.3864 18.9917C22.2457 19.1324 22.1667 19.3231 22.1667 19.522C22.1667 19.7209 22.2457 19.9117 22.3864 20.0524C22.527 20.193 22.7178 20.272 22.9167 20.272ZM34.9167 31.522H34.1667V30.772C34.1667 30.5731 34.0877 30.3824 33.947 30.2417C33.8064 30.1011 33.6156 30.022 33.4167 30.022C33.2178 30.022 33.027 30.1011 32.8864 30.2417C32.7457 30.3824 32.6667 30.5731 32.6667 30.772V31.522H31.9167C31.7178 31.522 31.527 31.6011 31.3864 31.7417C31.2457 31.8824 31.1667 32.0731 31.1667 32.272C31.1667 32.4709 31.2457 32.6617 31.3864 32.8024C31.527 32.943 31.7178 33.022 31.9167 33.022H32.6667V33.772C32.6667 33.9709 32.7457 34.1617 32.8864 34.3024C33.027 34.443 33.2178 34.522 33.4167 34.522C33.6156 34.522 33.8064 34.443 33.947 34.3024C34.0877 34.1617 34.1667 33.9709 34.1667 33.772V33.022H34.9167C35.1156 33.022 35.3064 32.943 35.447 32.8024C35.5877 32.6617 35.6667 32.4709 35.6667 32.272C35.6667 32.0731 35.5877 31.8824 35.447 31.7417C35.3064 31.6011 35.1156 31.522 34.9167 31.522ZM38.227 21.022L25.1667 34.0823C24.8854 34.3634 24.504 34.5213 24.1064 34.5213C23.7087 34.5213 23.3273 34.3634 23.0461 34.0823L21.1054 32.1436C20.9661 32.0043 20.8556 31.8389 20.7802 31.6569C20.7048 31.4749 20.666 31.2798 20.666 31.0828C20.666 30.8858 20.7048 30.6907 20.7802 30.5087C20.8556 30.3267 20.9661 30.1613 21.1054 30.022L34.1667 16.9617C34.306 16.8224 34.4714 16.7119 34.6534 16.6365C34.8354 16.5611 35.0305 16.5223 35.2275 16.5223C35.4245 16.5223 35.6196 16.5611 35.8016 16.6365C35.9836 16.7119 36.149 16.8224 36.2883 16.9617L38.227 18.9005C38.3663 19.0398 38.4769 19.2051 38.5523 19.3871C38.6277 19.5692 38.6665 19.7642 38.6665 19.9613C38.6665 20.1583 38.6277 20.3533 38.5523 20.5354C38.4769 20.7174 38.3663 20.8827 38.227 21.022ZM37.1667 19.9617L35.227 18.022L32.227 21.022L34.1667 22.9617L37.1667 19.9617Z" fill="#9333EA"/>
</g>
<defs>
<filter id="filter0_d_780_6550" x="0.666687" y="0.522034" width="58" height="58" filterUnits="userSpaceOnUse" color-interpolation-filters="sRGB">
<feFlood flood-opacity="0" result="BackgroundImageFix"/>
<feColorMatrix in="SourceAlpha" type="matrix" values="0 0 0 0 0 0 0 0 0 0 0 0 0 0 0 0 0 0 127 0" result="hardAlpha"/>
<feOffset dy="4"/>
<feGaussianBlur stdDeviation="2.5"/>
<feComposite in2="hardAlpha" operator="out"/>
<feColorMatrix type="matrix" values="0 0 0 0 0 0 0 0 0 0 0 0 0 0 0 0 0 0 0.05 0"/>
<feBlend mode="normal" in2="BackgroundImageFix" result="effect1_dropShadow_780_6550"/>
<feBlend mode="normal" in="SourceGraphic" in2="effect1_dropShadow_780_6550" result="shape"/>
</filter>
</defs>
</svg>
