<svg width="40" height="39" viewBox="0 0 40 39" fill="none" xmlns="http://www.w3.org/2000/svg">
<g filter="url(#filter0_d_815_5409)">
<rect x="4" y="1" width="32" height="32" rx="8" fill="#F5F3FF" shape-rendering="crispEdges"/>
<rect x="4.33333" y="1.33333" width="31.3333" height="31.3333" rx="7.66667" stroke="#9333EA" stroke-opacity="0.1" stroke-width="0.666667" shape-rendering="crispEdges"/>
<path d="M25.5 11.5H14.5C14.2348 11.5 13.9804 11.6054 13.7929 11.7929C13.6054 11.9804 13.5 12.2348 13.5 12.5V21.5C13.5 21.7652 13.6054 22.0196 13.7929 22.2071C13.9804 22.3946 14.2348 22.5 14.5 22.5H25.5C25.7652 22.5 26.0196 22.3946 26.2071 22.2071C26.3946 22.0196 26.5 21.7652 26.5 21.5V12.5C26.5 12.2348 26.3946 11.9804 26.2071 11.7929C26.0196 11.6054 25.7652 11.5 25.5 11.5ZM19 20.5H15.5C15.3674 20.5 15.2402 20.4473 15.1464 20.3536C15.0527 20.2598 15 20.1326 15 20C15 19.8674 15.0527 19.7402 15.1464 19.6464C15.2402 19.5527 15.3674 19.5 15.5 19.5H19C19.1326 19.5 19.2598 19.5527 19.3536 19.6464C19.4473 19.7402 19.5 19.8674 19.5 20C19.5 20.1326 19.4473 20.2598 19.3536 20.3536C19.2598 20.4473 19.1326 20.5 19 20.5ZM19 18.5H15.5C15.3674 18.5 15.2402 18.4473 15.1464 18.3536C15.0527 18.2598 15 18.1326 15 18C15 17.8674 15.0527 17.7402 15.1464 17.6464C15.2402 17.5527 15.3674 17.5 15.5 17.5H19C19.1326 17.5 19.2598 17.5527 19.3536 17.6464C19.4473 17.7402 19.5 17.8674 19.5 18C19.5 18.1326 19.4473 18.2598 19.3536 18.3536C19.2598 18.4473 19.1326 18.5 19 18.5ZM19 16.5H15.5C15.3674 16.5 15.2402 16.4473 15.1464 16.3536C15.0527 16.2598 15 16.1326 15 16C15 15.8674 15.0527 15.7402 15.1464 15.6464C15.2402 15.5527 15.3674 15.5 15.5 15.5H19C19.1326 15.5 19.2598 15.5527 19.3536 15.6464C19.4473 15.7402 19.5 15.8674 19.5 16C19.5 16.1326 19.4473 16.2598 19.3536 16.3536C19.2598 16.4473 19.1326 16.5 19 16.5ZM19 14.5H15.5C15.3674 14.5 15.2402 14.4473 15.1464 14.3536C15.0527 14.2598 15 14.1326 15 14C15 13.8674 15.0527 13.7402 15.1464 13.6464C15.2402 13.5527 15.3674 13.5 15.5 13.5H19C19.1326 13.5 19.2598 13.5527 19.3536 13.6464C19.4473 13.7402 19.5 13.8674 19.5 14C19.5 14.1326 19.4473 14.2598 19.3536 14.3536C19.2598 14.4473 19.1326 14.5 19 14.5ZM24.5 20.5H21C20.8674 20.5 20.7402 20.4473 20.6464 20.3536C20.5527 20.2598 20.5 20.1326 20.5 20C20.5 19.8674 20.5527 19.7402 20.6464 19.6464C20.7402 19.5527 20.8674 19.5 21 19.5H24.5C24.6326 19.5 24.7598 19.5527 24.8536 19.6464C24.9473 19.7402 25 19.8674 25 20C25 20.1326 24.9473 20.2598 24.8536 20.3536C24.7598 20.4473 24.6326 20.5 24.5 20.5ZM24.5 18.5H21C20.8674 18.5 20.7402 18.4473 20.6464 18.3536C20.5527 18.2598 20.5 18.1326 20.5 18C20.5 17.8674 20.5527 17.7402 20.6464 17.6464C20.7402 17.5527 20.8674 17.5 21 17.5H24.5C24.6326 17.5 24.7598 17.5527 24.8536 17.6464C24.9473 17.7402 25 17.8674 25 18C25 18.1326 24.9473 18.2598 24.8536 18.3536C24.7598 18.4473 24.6326 18.5 24.5 18.5ZM24.5 16.5H21C20.8674 16.5 20.7402 16.4473 20.6464 16.3536C20.5527 16.2598 20.5 16.1326 20.5 16C20.5 15.8674 20.5527 15.7402 20.6464 15.6464C20.7402 15.5527 20.8674 15.5 21 15.5H24.5C24.6326 15.5 24.7598 15.5527 24.8536 15.6464C24.9473 15.7402 25 15.8674 25 16C25 16.1326 24.9473 16.2598 24.8536 16.3536C24.7598 16.4473 24.6326 16.5 24.5 16.5ZM24.5 14.5H21C20.8674 14.5 20.7402 14.4473 20.6464 14.3536C20.5527 14.2598 20.5 14.1326 20.5 14C20.5 13.8674 20.5527 13.7402 20.6464 13.6464C20.7402 13.5527 20.8674 13.5 21 13.5H24.5C24.6326 13.5 24.7598 13.5527 24.8536 13.6464C24.9473 13.7402 25 13.8674 25 14C25 14.1326 24.9473 14.2598 24.8536 14.3536C24.7598 14.4473 24.6326 14.5 24.5 14.5Z" fill="#9333EA"/>
</g>
<defs>
<filter id="filter0_d_815_5409" x="0.666667" y="0.333333" width="38.6667" height="38.6667" filterUnits="userSpaceOnUse" color-interpolation-filters="sRGB">
<feFlood flood-opacity="0" result="BackgroundImageFix"/>
<feColorMatrix in="SourceAlpha" type="matrix" values="0 0 0 0 0 0 0 0 0 0 0 0 0 0 0 0 0 0 127 0" result="hardAlpha"/>
<feOffset dy="2.66667"/>
<feGaussianBlur stdDeviation="1.66667"/>
<feComposite in2="hardAlpha" operator="out"/>
<feColorMatrix type="matrix" values="0 0 0 0 0 0 0 0 0 0 0 0 0 0 0 0 0 0 0.05 0"/>
<feBlend mode="normal" in2="BackgroundImageFix" result="effect1_dropShadow_815_5409"/>
<feBlend mode="normal" in="SourceGraphic" in2="effect1_dropShadow_815_5409" result="shape"/>
</filter>
</defs>
</svg>
