<svg width="58" height="58" viewBox="0 0 58 58" fill="none" xmlns="http://www.w3.org/2000/svg">
<g filter="url(#filter0_d_815_7370)">
<rect x="5" y="1" width="48" height="48" rx="12" fill="#F5F3FF" shape-rendering="crispEdges"/>
<rect x="5.5" y="1.5" width="47" height="47" rx="11.5" stroke="#9333EA" stroke-opacity="0.1" shape-rendering="crispEdges"/>
<path d="M40.25 27.25C40.25 27.4489 40.171 27.6397 40.0303 27.7803C39.8897 27.921 39.6989 28 39.5 28H38V29.5C38 29.6989 37.921 29.8897 37.7803 30.0303C37.6397 30.171 37.4489 30.25 37.25 30.25C37.0511 30.25 36.8603 30.171 36.7196 30.0303C36.579 29.8897 36.5 29.6989 36.5 29.5V28H35C34.8011 28 34.6103 27.921 34.4696 27.7803C34.329 27.6397 34.25 27.4489 34.25 27.25C34.25 27.0511 34.329 26.8603 34.4696 26.7197C34.6103 26.579 34.8011 26.5 35 26.5H36.5V25C36.5 24.8011 36.579 24.6103 36.7196 24.4697C36.8603 24.329 37.0511 24.25 37.25 24.25C37.4489 24.25 37.6397 24.329 37.7803 24.4697C37.921 24.6103 38 24.8011 38 25V26.5H39.5C39.6989 26.5 39.8897 26.579 40.0303 26.7197C40.171 26.8603 40.25 27.0511 40.25 27.25ZM22.25 19.75H23.75V21.25C23.75 21.4489 23.829 21.6397 23.9696 21.7803C24.1103 21.921 24.3011 22 24.5 22C24.6989 22 24.8897 21.921 25.0303 21.7803C25.171 21.6397 25.25 21.4489 25.25 21.25V19.75H26.75C26.9489 19.75 27.1397 19.671 27.2803 19.5303C27.421 19.3897 27.5 19.1989 27.5 19C27.5 18.8011 27.421 18.6103 27.2803 18.4697C27.1397 18.329 26.9489 18.25 26.75 18.25H25.25V16.75C25.25 16.5511 25.171 16.3603 25.0303 16.2197C24.8897 16.079 24.6989 16 24.5 16C24.3011 16 24.1103 16.079 23.9696 16.2197C23.829 16.3603 23.75 16.5511 23.75 16.75V18.25H22.25C22.0511 18.25 21.8603 18.329 21.7196 18.4697C21.579 18.6103 21.5 18.8011 21.5 19C21.5 19.1989 21.579 19.3897 21.7196 19.5303C21.8603 19.671 22.0511 19.75 22.25 19.75ZM34.25 31H33.5V30.25C33.5 30.0511 33.421 29.8603 33.2803 29.7197C33.1397 29.579 32.9489 29.5 32.75 29.5C32.5511 29.5 32.3603 29.579 32.2196 29.7197C32.079 29.8603 32 30.0511 32 30.25V31H31.25C31.0511 31 30.8603 31.079 30.7196 31.2197C30.579 31.3603 30.5 31.5511 30.5 31.75C30.5 31.9489 30.579 32.1397 30.7196 32.2803C30.8603 32.421 31.0511 32.5 31.25 32.5H32V33.25C32 33.4489 32.079 33.6397 32.2196 33.7803C32.3603 33.921 32.5511 34 32.75 34C32.9489 34 33.1397 33.921 33.2803 33.7803C33.421 33.6397 33.5 33.4489 33.5 33.25V32.5H34.25C34.4489 32.5 34.6397 32.421 34.7803 32.2803C34.921 32.1397 35 31.9489 35 31.75C35 31.5511 34.921 31.3603 34.7803 31.2197C34.6397 31.079 34.4489 31 34.25 31ZM37.5603 20.5L24.5 33.5603C24.2187 33.8414 23.8373 33.9993 23.4397 33.9993C23.042 33.9993 22.6606 33.8414 22.3794 33.5603L20.4387 31.6216C20.2994 31.4823 20.1889 31.3169 20.1135 31.1349C20.0381 30.9529 19.9993 30.7578 19.9993 30.5608C19.9993 30.3638 20.0381 30.1687 20.1135 29.9867C20.1889 29.8047 20.2994 29.6393 20.4387 29.5L33.5 16.4397C33.6393 16.3004 33.8046 16.1898 33.9867 16.1144C34.1687 16.039 34.3637 16.0002 34.5608 16.0002C34.7578 16.0002 34.9529 16.039 35.1349 16.1144C35.3169 16.1898 35.4822 16.3004 35.6215 16.4397L37.5603 18.3784C37.6996 18.5177 37.8101 18.6831 37.8855 18.8651C37.9609 19.0471 37.9998 19.2422 37.9998 19.4392C37.9998 19.6362 37.9609 19.8313 37.8855 20.0133C37.8101 20.1953 37.6996 20.3607 37.5603 20.5ZM36.5 19.4397L34.5603 17.5L31.5603 20.5L33.5 22.4397L36.5 19.4397Z" fill="#9333EA"/>
</g>
<defs>
<filter id="filter0_d_815_7370" x="0" y="0" width="58" height="58" filterUnits="userSpaceOnUse" color-interpolation-filters="sRGB">
<feFlood flood-opacity="0" result="BackgroundImageFix"/>
<feColorMatrix in="SourceAlpha" type="matrix" values="0 0 0 0 0 0 0 0 0 0 0 0 0 0 0 0 0 0 127 0" result="hardAlpha"/>
<feOffset dy="4"/>
<feGaussianBlur stdDeviation="2.5"/>
<feComposite in2="hardAlpha" operator="out"/>
<feColorMatrix type="matrix" values="0 0 0 0 0 0 0 0 0 0 0 0 0 0 0 0 0 0 0.05 0"/>
<feBlend mode="normal" in2="BackgroundImageFix" result="effect1_dropShadow_815_7370"/>
<feBlend mode="normal" in="SourceGraphic" in2="effect1_dropShadow_815_7370" result="shape"/>
</filter>
</defs>
</svg>
