<svg width="40" height="39" viewBox="0 0 40 39" fill="none" xmlns="http://www.w3.org/2000/svg">
<g filter="url(#filter0_d_815_5391)">
<rect x="4" y="1" width="32" height="32" rx="8" fill="#F5F3FF" shape-rendering="crispEdges"/>
<rect x="4.33333" y="1.33333" width="31.3333" height="31.3333" rx="7.66667" stroke="#9333EA" stroke-opacity="0.1" stroke-width="0.666667" shape-rendering="crispEdges"/>
<path d="M25.3538 14.1463L21.8538 10.6463C21.8073 10.5998 21.7521 10.563 21.6914 10.5379C21.6307 10.5128 21.5657 10.4999 21.5 10.5H15.5C15.2348 10.5 14.9804 10.6054 14.7929 10.7929C14.6054 10.9804 14.5 11.2348 14.5 11.5V22.5C14.5 22.7652 14.6054 23.0196 14.7929 23.2071C14.9804 23.3946 15.2348 23.5 15.5 23.5H24.5C24.7652 23.5 25.0196 23.3946 25.2071 23.2071C25.3946 23.0196 25.5 22.7652 25.5 22.5V14.5C25.5001 14.4343 25.4872 14.3693 25.4621 14.3086C25.437 14.2479 25.4002 14.1927 25.3538 14.1463ZM21.5 19H20.5V20C20.5 20.1326 20.4473 20.2598 20.3536 20.3536C20.2598 20.4473 20.1326 20.5 20 20.5C19.8674 20.5 19.7402 20.4473 19.6464 20.3536C19.5527 20.2598 19.5 20.1326 19.5 20V19H18.5C18.3674 19 18.2402 18.9473 18.1464 18.8536C18.0527 18.7598 18 18.6326 18 18.5C18 18.3674 18.0527 18.2402 18.1464 18.1464C18.2402 18.0527 18.3674 18 18.5 18H19.5V17C19.5 16.8674 19.5527 16.7402 19.6464 16.6464C19.7402 16.5527 19.8674 16.5 20 16.5C20.1326 16.5 20.2598 16.5527 20.3536 16.6464C20.4473 16.7402 20.5 16.8674 20.5 17V18H21.5C21.6326 18 21.7598 18.0527 21.8536 18.1464C21.9473 18.2402 22 18.3674 22 18.5C22 18.6326 21.9473 18.7598 21.8536 18.8536C21.7598 18.9473 21.6326 19 21.5 19ZM21.5 14.5V11.7069L24.2931 14.5H21.5Z" fill="#9333EA"/>
</g>
<defs>
<filter id="filter0_d_815_5391" x="0.666667" y="0.333333" width="38.6667" height="38.6667" filterUnits="userSpaceOnUse" color-interpolation-filters="sRGB">
<feFlood flood-opacity="0" result="BackgroundImageFix"/>
<feColorMatrix in="SourceAlpha" type="matrix" values="0 0 0 0 0 0 0 0 0 0 0 0 0 0 0 0 0 0 127 0" result="hardAlpha"/>
<feOffset dy="2.66667"/>
<feGaussianBlur stdDeviation="1.66667"/>
<feComposite in2="hardAlpha" operator="out"/>
<feColorMatrix type="matrix" values="0 0 0 0 0 0 0 0 0 0 0 0 0 0 0 0 0 0 0.05 0"/>
<feBlend mode="normal" in2="BackgroundImageFix" result="effect1_dropShadow_815_5391"/>
<feBlend mode="normal" in="SourceGraphic" in2="effect1_dropShadow_815_5391" result="shape"/>
</filter>
</defs>
</svg>
